REM DIRINDEX 1\2\6,1\2\7,1\2\8,1\3\9,1\3\10,1\3\11,1\4\12,1\4\13,1\4\14,1\5\15,1\5\16,1\5\17,1\5\18
REM DIRNAME folder01,folder02,folder03,folder04,folder05,folder06,folder07,folder08,folder09,folder10,folder11,folder12,folder13,folder14,folder15,folder16,folder17,folder18
TITLE ""
FILE "2Q_t_0950-0966.mp3" MP3
  TRACK 01 AUDIO
    TITLE "12:cjc019_3961"
    INDEX 01 00:00:00
  TRACK 02 AUDIO
    TITLE "0:"
    INDEX 01 00:07:25
  TRACK 03 AUDIO
    TITLE "13:cjc019_3962"
    INDEX 01 00:08:38
  TRACK 04 AUDIO
    TITLE "0:"
    INDEX 01 00:09:47
  TRACK 05 AUDIO
    TITLE "14:cjc019_3963"
    INDEX 01 00:10:25
  TRACK 06 AUDIO
    TITLE "0:"
    INDEX 01 00:12:63
  TRACK 07 AUDIO
    TITLE "13:cjc019_3964"
    INDEX 01 00:13:45
  TRACK 08 AUDIO
    TITLE "0:"
    INDEX 01 00:14:72
  TRACK 09 AUDIO
    TITLE "14:cjc019_3965"
    INDEX 01 00:15:54
  TRACK 10 AUDIO
    TITLE "0:"
    INDEX 01 00:18:68
  TRACK 11 AUDIO
    TITLE "13:cjc019_3966"
    INDEX 01 00:19:46
  TRACK 12 AUDIO
    TITLE "0:"
    INDEX 01 00:20:55
  TRACK 13 AUDIO
    TITLE "14:cjc019_3967"
    INDEX 01 00:21:35
  TRACK 14 AUDIO
    TITLE "0:"
    INDEX 01 00:23:44
  TRACK 15 AUDIO
    TITLE "13:cjc019_3968"
    INDEX 01 00:24:24
  TRACK 16 AUDIO
    TITLE "0:"
    INDEX 01 00:25:31
  TRACK 17 AUDIO
    TITLE "14:cjc019_3969"
    INDEX 01 00:26:15
  TRACK 18 AUDIO
    TITLE "0:"
    INDEX 01 00:28:45
  TRACK 19 AUDIO
    TITLE "13:cjc019_3970"
    INDEX 01 00:29:25
  TRACK 20 AUDIO
    TITLE "0:"
    INDEX 01 00:30:48
  TRACK 21 AUDIO
    TITLE "14:cjc019_3971"
    INDEX 01 00:31:24
  TRACK 22 AUDIO
    TITLE "0:"
    INDEX 01 00:33:17
  TRACK 23 AUDIO
    TITLE "13:cjc019_3972"
    INDEX 01 00:33:68
  TRACK 24 AUDIO
    TITLE "0:"
    INDEX 01 00:34:65
  TRACK 25 AUDIO
    TITLE "14:cjc019_3973"
    INDEX 01 00:35:51
  TRACK 26 AUDIO
    TITLE "0:"
    INDEX 01 00:39:29
  TRACK 27 AUDIO
    TITLE "13:cjc019_3974"
    INDEX 01 00:40:05
  TRACK 28 AUDIO
    TITLE "0:"
    INDEX 01 00:41:34
  TRACK 29 AUDIO
    TITLE "14:cjc019_3975"
    INDEX 01 00:42:14
  TRACK 30 AUDIO
    TITLE "0:"
    INDEX 01 00:43:44
  TRACK 31 AUDIO
    TITLE "13:cjc019_3976"
    INDEX 01 00:44:18
  TRACK 32 AUDIO
    TITLE "0:"
    INDEX 01 00:45:28
  TRACK 33 AUDIO
    TITLE "14:cjc019_3977"
    INDEX 01 00:46:15
  TRACK 34 AUDIO
    TITLE "0:"
    INDEX 01 00:47:46
  TRACK 35 AUDIO
    TITLE "13:cjc019_3978"
    INDEX 01 00:48:24
  TRACK 36 AUDIO
    TITLE "0:"
    INDEX 01 00:50:05
  TRACK 37 AUDIO
    TITLE "14:cjc019_3979"
    INDEX 01 00:50:60
  TRACK 38 AUDIO
    TITLE "0:"
    INDEX 01 00:54:07
  TRACK 39 AUDIO
    TITLE "13:cjc019_3980"
    INDEX 01 00:54:62
  TRACK 40 AUDIO
    TITLE "0:"
    INDEX 01 00:56:37
  TRACK 41 AUDIO
    TITLE "14:cjc019_3981"
    INDEX 01 00:57:17
  TRACK 42 AUDIO
    TITLE "0:"
    INDEX 01 00:58:32
  TRACK 43 AUDIO
    TITLE "13:cjc019_3982"
    INDEX 01 00:59:12
  TRACK 44 AUDIO
    TITLE "0:"
    INDEX 01 01:00:23
  TRACK 45 AUDIO
    TITLE "14:cjc019_3983"
    INDEX 01 01:01:01
  TRACK 46 AUDIO
    TITLE "0:"
    INDEX 01 01:06:02
  TRACK 47 AUDIO
    TITLE "13:cjc019_3984"
    INDEX 01 01:06:57
  TRACK 48 AUDIO
    TITLE "0:"
    INDEX 01 01:08:21
  TRACK 49 AUDIO
    TITLE "14:cjc019_3985"
    INDEX 01 01:09:01
  TRACK 50 AUDIO
    TITLE "0:"
    INDEX 01 01:12:50
  TRACK 51 AUDIO
    TITLE "13:cjc019_3986"
    INDEX 01 01:13:24
  TRACK 52 AUDIO
    TITLE "0:"
    INDEX 01 01:14:43
  TRACK 53 AUDIO
    TITLE "14:cjc019_3987"
    INDEX 01 01:15:17
  TRACK 54 AUDIO
    TITLE "0:"
    INDEX 01 01:17:33
  TRACK 55 AUDIO
    TITLE "13:cjc019_3988"
    INDEX 01 01:18:09
  TRACK 56 AUDIO
    TITLE "0:"
    INDEX 01 01:19:23
  TRACK 57 AUDIO
    TITLE "14:cjc019_3989"
    INDEX 01 01:20:06
  TRACK 58 AUDIO
    TITLE "0:"
    INDEX 01 01:21:27
  TRACK 59 AUDIO
    TITLE "13:cjc019_3990"
    INDEX 01 01:22:11
  TRACK 60 AUDIO
    TITLE "0:"
    INDEX 01 01:23:38
  TRACK 61 AUDIO
    TITLE "14:cjc019_3991"
    INDEX 01 01:24:18
  TRACK 62 AUDIO
    TITLE "0:"
    INDEX 01 01:26:05
  TRACK 63 AUDIO
    TITLE "13:cjc019_3992"
    INDEX 01 01:26:58
  TRACK 64 AUDIO
    TITLE "0:"
    INDEX 01 01:27:67
  TRACK 65 AUDIO
    TITLE "14:cjc019_3993"
    INDEX 01 01:28:51
  TRACK 66 AUDIO
    TITLE "0:"
    INDEX 01 01:32:43
  TRACK 67 AUDIO
    TITLE "13:cjc019_3994"
    INDEX 01 01:33:25
  TRACK 68 AUDIO
    TITLE "0:"
    INDEX 01 01:34:42
  TRACK 69 AUDIO
    TITLE "14:cjc019_3995"
    INDEX 01 01:35:26
  TRACK 70 AUDIO
    TITLE "0:"
    INDEX 01 01:36:50
